Coordinates
version=1
nRows=32
nColumns=12
inDegrees=yes

Units are S.I. units (second, meters, Newtons, ...)
Angles are in degrees

endheader
time	SC_y	SC_z	SC_x	AC_y	AC_z	AC_x	GH_y	GH_z	GH_yy	EL_x	PS_y
       0.0              -35.76          27.97          11.68          49.82          1.097          1.311         -93.39          39.12          33.06           41.9          89.02
   0.01689              -35.77          27.96          11.68          49.82          1.098          1.314         -93.35          39.11          33.03           41.9          89.02
   0.03378              -35.77          27.96          11.69          49.82          1.098          1.317         -93.31          39.11           33.0          41.91          89.03
   0.05067              -35.77          27.96          11.69          49.82          1.098           1.32         -93.27          39.11          32.97          41.91          89.03
   0.06756              -35.78          27.96           11.7          49.82          1.098          1.323         -93.23          39.11          32.93          41.91          89.04
   0.08445              -35.78          27.96           11.7          49.82          1.099          1.326         -93.18          39.11           32.9          41.92          89.05
    0.1013              -35.79          27.95          11.71          49.83          1.099           1.33         -93.13          39.11          32.86          41.92          89.05
    0.1182              -35.79          27.95          11.72          49.83          1.099          1.333         -93.08          39.11          32.81          41.93          89.06
    0.1351               -35.8          27.95          11.72          49.83            1.1          1.337         -93.02          39.11          32.77          41.93          89.07
     0.152               -35.8          27.95          11.73          49.83            1.1          1.342         -92.96          39.11          32.72          41.94          89.07
    0.1689              -35.81          27.94          11.74          49.83            1.1          1.346         -92.89          39.11          32.67          41.94          89.08
    0.1858              -35.81          27.94          11.75          49.83          1.101          1.351         -92.82          39.11          32.61          41.95          89.09
    0.2027              -35.82          27.94          11.76          49.84          1.101          1.357         -92.74          39.11          32.55          41.95           89.1
    0.2196              -35.82          27.93          11.77          49.84          1.102          1.363         -92.66           39.1          32.49          41.96          89.11
    0.2364              -35.83          27.93          11.78          49.84          1.102          1.369         -92.57           39.1          32.41          41.97          89.12
    0.2533              -35.84          27.92           11.8          49.84          1.103          1.376         -92.47           39.1          32.34          41.97          89.14
    0.2702              -35.85          27.92          11.81          49.85          1.103          1.383         -92.36           39.1          32.25          41.98          89.15
    0.2871              -35.86          27.91          11.82          49.85          1.104          1.391         -92.25           39.1          32.16          41.99          89.17
     0.304              -35.87          27.91          11.84          49.85          1.105            1.4         -92.12           39.1          32.06           42.0          89.18
    0.3209              -35.88           27.9          11.86          49.86          1.105           1.41         -91.98           39.1          31.95          42.01           89.2
    0.3378              -35.89          27.89          11.88          49.86          1.106           1.42         -91.83          39.09          31.83          42.03          89.22
    0.3547              -35.91          27.88           11.9          49.86          1.107          1.432         -91.66          39.09           31.7          42.04          89.24
    0.3716              -35.92          27.88          11.92          49.87          1.108          1.445         -91.48          39.09          31.56          42.05          89.26
    0.3885              -35.94          27.87          11.95          49.88          1.109          1.459         -91.27          39.09           31.4          42.07          89.29
    0.4053              -35.96          27.86          11.98          49.88          1.111          1.475         -91.04          39.08          31.22          42.09          89.32
    0.4222              -35.98          27.84          12.01          49.89          1.112          1.493         -90.79          39.08          31.02          42.11          89.35
    0.4391               -36.0          27.83          12.05           49.9          1.114          1.513          -90.5          39.07          30.79          42.13          89.39
     0.456              -36.03          27.82          12.09           49.9          1.115          1.535         -90.18          39.07          30.54          42.16          89.43
    0.4729              -36.06           27.8          12.14          49.91          1.117           1.56         -89.82          39.06          30.26          42.19          89.48
    0.4898              -36.09          27.78          12.19          49.92           1.12          1.589         -89.41          39.06          29.93          42.22          89.53
    0.5067              -36.13          27.76          12.25          49.94          1.122          1.622         -88.94          39.05          29.56          42.26          89.59
    0.5236              -36.17          27.73          12.32          49.95          1.125          1.659          -88.4          39.04          29.14           42.3          89.66
